<svg width="512" height="512" xmlns="http://www.w3.org/2000/svg">
  <rect width="512" height="512" rx="128" fill="#6366f1"/>
  <g transform="translate(128, 128)">
    <!-- Checkmark icon -->
    <path d="M 64 0 L 96 0 L 96 32 L 128 32 L 128 64 L 160 64 L 160 96 L 192 96 L 192 128 L 224 128 L 224 160 L 256 160 L 256 192 L 224 192 L 224 224 L 192 224 L 192 256 L 160 256 L 160 224 L 128 224 L 128 192 L 96 192 L 96 160 L 64 160 L 64 128 L 32 128 L 32 96 L 0 96 L 0 64 L 32 64 L 32 96 L 64 96 L 64 128 L 96 128 L 96 160 L 128 160 L 128 192 L 160 192 L 160 160 L 192 160 L 192 128 L 160 128 L 160 96 L 128 96 L 128 64 L 96 64 L 96 32 L 64 32 Z" fill="#ffffff"/>
  </g>
</svg>
